<?xml version="1.0" encoding="UTF-8" standalone="no"?>
<svg width="144px" height="110px" viewBox="0 0 144 110" version="1.1" xmlns="http://www.w3.org/2000/svg" xmlns:xlink="http://www.w3.org/1999/xlink">
    <!-- Generator: Sketch 3.8.1 (29687) - http://www.bohemiancoding.com/sketch -->
    <title>Group 6</title>
    <desc>Created with Sketch.</desc>
    <defs>
        <polygon id="path-1" points="55.0395158 8.9862833 77.9999993 0.350727856 99.7767175 0.350727856 99.7767175 99.3489197 77.9999993 99.3489218 57.2610737 91.3755484"></polygon>
        <mask id="mask-2" maskContentUnits="userSpaceOnUse" maskUnits="objectBoundingBox" x="0" y="0" width="44.7372017" height="98.9981939" fill="white">
            <use xlink:href="#path-1"></use>
        </mask>
        <rect id="path-3" x="0" y="8.33333333" width="100" height="83.3333333" rx="8"></rect>
        <filter x="-50%" y="-50%" width="200%" height="200%" filterUnits="objectBoundingBox" id="filter-4">
            <feOffset dx="2" dy="2" in="SourceAlpha" result="shadowOffsetOuter1"></feOffset>
            <feGaussianBlur stdDeviation="2" in="shadowOffsetOuter1" result="shadowBlurOuter1"></feGaussianBlur>
            <feComposite in="shadowBlurOuter1" in2="SourceAlpha" operator="out" result="shadowBlurOuter1"></feComposite>
            <feColorMatrix values="0 0 0 0 0   0 0 0 0 0   0 0 0 0 0  0 0 0 0.25 0" type="matrix" in="shadowBlurOuter1"></feColorMatrix>
        </filter>
        <mask id="mask-5" maskContentUnits="userSpaceOnUse" maskUnits="objectBoundingBox" x="0" y="0" width="100" height="83.3333333" fill="white">
            <use xlink:href="#path-3"></use>
        </mask>
        <rect id="path-6" x="0" y="0" width="12" height="12.0030008" rx="3"></rect>
        <mask id="mask-7" maskContentUnits="userSpaceOnUse" maskUnits="objectBoundingBox" x="0" y="0" width="12" height="12.0030008" fill="white">
            <use xlink:href="#path-6"></use>
        </mask>
        <rect id="path-8" x="0" y="20.5" width="12" height="12.0030008" rx="3"></rect>
        <mask id="mask-9" maskContentUnits="userSpaceOnUse" maskUnits="objectBoundingBox" x="0" y="0" width="12" height="12.0030008" fill="white">
            <use xlink:href="#path-8"></use>
        </mask>
        <rect id="path-10" x="0" y="41" width="12" height="12.0030008" rx="3"></rect>
        <mask id="mask-11" maskContentUnits="userSpaceOnUse" maskUnits="objectBoundingBox" x="0" y="0" width="12" height="12.0030008" fill="white">
            <use xlink:href="#path-10"></use>
        </mask>
        <rect id="path-12" x="0" y="0" width="58" height="100"></rect>
        <filter x="-50%" y="-50%" width="200%" height="200%" filterUnits="objectBoundingBox" id="filter-13">
            <feMorphology radius="1" operator="dilate" in="SourceAlpha" result="shadowSpreadOuter1"></feMorphology>
            <feOffset dx="2" dy="2" in="shadowSpreadOuter1" result="shadowOffsetOuter1"></feOffset>
            <feGaussianBlur stdDeviation="2" in="shadowOffsetOuter1" result="shadowBlurOuter1"></feGaussianBlur>
            <feComposite in="shadowBlurOuter1" in2="SourceAlpha" operator="out" result="shadowBlurOuter1"></feComposite>
            <feColorMatrix values="0 0 0 0 0   0 0 0 0 0   0 0 0 0 0  0 0 0 0.25 0" type="matrix" in="shadowBlurOuter1"></feColorMatrix>
        </filter>
        <mask id="mask-14" maskContentUnits="userSpaceOnUse" maskUnits="objectBoundingBox" x="-1" y="-1" width="60" height="102">
            <rect x="-1" y="-1" width="60" height="102" fill="white"></rect>
            <use xlink:href="#path-12" fill="black"></use>
        </mask>
    </defs>
    <g id="米画师---首页---Ver-2" stroke="none" stroke-width="1" fill="none" fill-rule="evenodd">
        <g id="第一屏" transform="translate(-644.000000, -1810.000000)">
            <g id="美术约稿，如此轻松" transform="translate(170.000000, 1679.000000)">
                <g id="优势x3" transform="translate(0.000000, 134.000000)">
                    <g id="高效模板" transform="translate(400.000000, 0.000000)">
                        <g id="Group-6" transform="translate(76.000000, 0.000000)">
                            <use id="Rectangle-49-Copy" stroke="#D8D8D8" mask="url(#mask-2)" stroke-width="2" fill="#FAF6EF" xlink:href="#path-1"></use>
                            <g id="Rectangle-45">
                                <use fill="black" fill-opacity="1" filter="url(#filter-4)" xlink:href="#path-3"></use>
                                <use stroke="#D8D8D8" mask="url(#mask-5)" stroke-width="1" fill="#FFFFFF" fill-rule="evenodd" xlink:href="#path-3"></use>
                            </g>
                            <g id="Group-5" transform="translate(14.666667, 22.833333)">
                                <text id="类型" font-family="FZLTXHK--GBK1-0, Lantinghei SC" font-size="10" font-weight="300" line-spacing="13" letter-spacing="2" fill="#8A8A8A">
                                    <tspan x="22.3333333" y="10">类型</tspan>
                                </text>
                                <text id="风格" font-family="FZLTXHK--GBK1-0, Lantinghei SC" font-size="10" font-weight="300" line-spacing="13" letter-spacing="1.66666663" fill="#8A8A8A">
                                    <tspan x="22.3333333" y="29.3333333">风格</tspan>
                                </text>
                                <text id="尺寸" font-family="FZLTXHK--GBK1-0, Lantinghei SC" font-size="10" font-weight="300" line-spacing="13" letter-spacing="1.66666663" fill="#8A8A8A">
                                    <tspan x="22.3333333" y="50.8333333">尺寸</tspan>
                                </text>
                                <g id="Group-3" transform="translate(0.000000, 0.833333)" stroke="#BEBEBE" stroke-width="2" fill="#FFFFFF">
                                    <use id="Rectangle-46" mask="url(#mask-7)" xlink:href="#path-6"></use>
                                    <use id="Rectangle-46-Copy" mask="url(#mask-9)" xlink:href="#path-8"></use>
                                    <use id="Rectangle-46-Copy-2" mask="url(#mask-11)" xlink:href="#path-10"></use>
                                </g>
                            </g>
                            <g id="Group-7" transform="translate(77.000000, 0.000000)">
                                <g id="Rectangle-49">
                                    <use fill="black" fill-opacity="1" filter="url(#filter-13)" xlink:href="#path-12"></use>
                                    <use fill="#FAF6EF" fill-rule="evenodd" xlink:href="#path-12"></use>
                                    <use stroke="#D8D8D8" mask="url(#mask-14)" stroke-width="2" xlink:href="#path-12"></use>
                                </g>
                                <path d="M0.5,50.5 L58.5,50.5" id="Line" stroke="#D8D8D8" stroke-linecap="square"></path>
                                <g id="Group" transform="translate(51.000000, 50.500000) rotate(-90.000000) translate(-51.000000, -50.500000) translate(42.500000, 43.500000)">
                                    <path d="M2.77654676,2.9085574 C2.81863202,2.02875941 3.00787464,0.271898611 3.00787464,0.271898611 C3.00787464,0.271898611 4.42369772,1.07002241 5.01896105,1.55729613 C5.49736277,1.94890867 6.22886978,2.9085574 6.22886978,2.9085574 C6.22886978,2.9085574 7.5016823,2.71632394 8.09418226,2.71632394 C8.75203983,2.71632394 9.97994236,2.9085574 9.97994236,2.9085574 C9.97994236,2.9085574 10.825824,1.95854222 11.2804934,1.55729613 C11.8217282,1.07965597 12.9676549,0.271898628 12.9676549,0.271898628 C12.9676549,0.271898628 13.4038635,1.7680571 13.4889005,2.45546075 C13.577612,3.17256784 13.4889005,4.48543084 13.4889005,4.48543084 C13.4889005,4.48543084 14.0181151,5.49813598 14.3009346,6.59945951 C14.4451748,7.16114317 14.6577846,7.99907604 14.7707491,8.93583523 C14.8842446,9.8769976 14.8980758,10.9177041 15.0350946,11.7867709 C15.3084912,13.5208386 16.5,14 16.5,14 L1.0658141e-14,14 C1.0658141e-14,14 0.962523795,12.9589513 1.20311046,11.3672145 C1.44369712,9.77547775 1.51982922,9.2310136 1.58912926,8.72183834 C1.73029412,7.68464344 1.95615437,6.62319818 2.08082377,6.19383131 C2.34980943,5.26743297 2.77654676,4.48543089 2.77654676,4.48543089 C2.77654676,4.48543089 2.74152273,3.64073971 2.77654676,2.9085574 Z" id="Path-1" fill="#FFFFFF"></path>
                                    <ellipse id="Oval-1" fill="#D8D8D8" cx="5.16911239" cy="7.87778615" rx="0.586459903" ry="1.62221385"></ellipse>
                                    <ellipse id="Oval-1-Copy" fill="#D8D8D8" cx="9.86079161" cy="7.87778615" rx="0.586459903" ry="1.62221385"></ellipse>
                                </g>
                            </g>
                        </g>
                    </g>
                </g>
            </g>
        </g>
    </g>
</svg>