<?xml version="1.0" encoding="UTF-8" standalone="no"?>
<svg width="66px" height="60px" viewBox="0 0 66 60" version="1.1" xmlns="http://www.w3.org/2000/svg" xmlns:xlink="http://www.w3.org/1999/xlink">
    <!-- Generator: Sketch 3.8.1 (29687) - http://www.bohemiancoding.com/sketch -->
    <title>评价</title>
    <desc>Created with Sketch.</desc>
    <defs>
        <filter x="-50%" y="-50%" width="200%" height="200%" filterUnits="objectBoundingBox" id="filter-1">
            <feMorphology radius="0.5" operator="dilate" in="SourceAlpha" result="shadowSpreadOuter1"></feMorphology>
            <feOffset dx="2" dy="2" in="shadowSpreadOuter1" result="shadowOffsetOuter1"></feOffset>
            <feGaussianBlur stdDeviation="2" in="shadowOffsetOuter1" result="shadowBlurOuter1"></feGaussianBlur>
            <feComposite in="shadowBlurOuter1" in2="SourceAlpha" operator="out" result="shadowBlurOuter1"></feComposite>
            <feColorMatrix values="0 0 0 0 0   0 0 0 0 0   0 0 0 0 0  0 0 0 0.25 0" type="matrix" in="shadowBlurOuter1" result="shadowMatrixOuter1"></feColorMatrix>
            <feMerge>
                <feMergeNode in="shadowMatrixOuter1"></feMergeNode>
                <feMergeNode in="SourceGraphic"></feMergeNode>
            </feMerge>
        </filter>
    </defs>
    <g id="米画师---首页---Ver-2" stroke="none" stroke-width="1" fill="none" fill-rule="evenodd">
        <g id="第一屏" transform="translate(-969.000000, -2330.000000)">
            <g id="保证稿件质量与安全" transform="translate(165.000000, 2333.000000)">
                <g id="优势x4" transform="translate(790.000000, 0.000000)">
                    <g id="真实评价">
                        <g id="评价" filter="url(#filter-1)" transform="translate(17.000000, 0.000000)">
                            <path d="M38.5402531,46.0193281 C34.6382163,48.5381371 29.9898263,50 25,50 C11.1928813,50 0,38.8071187 0,25 C0,11.1928813 11.1928813,0 25,0 C38.8071187,0 50,11.1928813 50,25 C50,26.3039469 49.9001713,27.5845776 49.7077396,28.8346662 L56.3857985,46.0193286 L38.5402531,46.0193281 Z" id="Oval-7" stroke="#BEBEBE" fill="#FFFFFF"></path>
                            <path d="M15.5,35 L40.5,35" id="Line" stroke="#E15067" stroke-width="4" stroke-linecap="round" stroke-dasharray="1,8,1,8"></path>
                            <path d="M21.0382246,28.4962443 C18.9118272,29.5681693 17.0813845,28.7134019 16.2024501,27.9301534 C14.5676451,26.4733229 14.9100085,23.3616322 15.4306551,22.1981267 C16.5457048,19.7062893 18.6754861,17.9908562 19.7917685,17.0860724 C23.150678,14.3635652 26.2556732,12 26.2556732,12 C26.2556732,12 25.848903,14.661854 28.7852695,17.0860724 C29.3008237,17.511706 32.5561718,18.6452935 33.9200632,20.7100191 C35.1249891,22.5340949 34.5303174,25.2782814 33.9200632,26.1198699 C32.632849,27.8950393 29.5153548,27.8281966 28.4040854,27.4888969 C26.1730798,26.8077125 24.7668155,23.7856274 24.7668155,23.7856274 C24.7668155,23.7856274 23.3456558,27.3330594 21.0382246,28.4962443 Z" id="Triangle-10" fill="#E15067" transform="translate(24.809071, 20.500000) scale(-1, -1) translate(-24.809071, -20.500000) "></path>
                        </g>
                    </g>
                </g>
            </g>
        </g>
    </g>
</svg>