<?xml version="1.0" encoding="UTF-8" standalone="no"?>
<svg width="66px" height="60px" viewBox="0 0 66 60" version="1.1" xmlns="http://www.w3.org/2000/svg" xmlns:xlink="http://www.w3.org/1999/xlink">
    <!-- Generator: Sketch 3.8.1 (29687) - http://www.bohemiancoding.com/sketch -->
    <title>加密</title>
    <desc>Created with Sketch.</desc>
    <defs>
        <filter x="-50%" y="-50%" width="200%" height="200%" filterUnits="objectBoundingBox" id="filter-1">
            <feMorphology radius="0.5" operator="dilate" in="SourceAlpha" result="shadowSpreadOuter1"></feMorphology>
            <feOffset dx="2" dy="2" in="shadowSpreadOuter1" result="shadowOffsetOuter1"></feOffset>
            <feGaussianBlur stdDeviation="2" in="shadowOffsetOuter1" result="shadowBlurOuter1"></feGaussianBlur>
            <feComposite in="shadowBlurOuter1" in2="SourceAlpha" operator="out" result="shadowBlurOuter1"></feComposite>
            <feColorMatrix values="0 0 0 0 0   0 0 0 0 0   0 0 0 0 0  0 0 0 0.25 0" type="matrix" in="shadowBlurOuter1" result="shadowMatrixOuter1"></feColorMatrix>
            <feMerge>
                <feMergeNode in="shadowMatrixOuter1"></feMergeNode>
                <feMergeNode in="SourceGraphic"></feMergeNode>
            </feMerge>
        </filter>
    </defs>
    <g id="米画师---首页---Ver-2" stroke="none" stroke-width="1" fill="none" fill-rule="evenodd">
        <g id="第一屏" transform="translate(-969.000000, -2702.000000)">
            <g id="保证稿件质量与安全" transform="translate(165.000000, 2333.000000)">
                <g id="优势x4" transform="translate(790.000000, 0.000000)">
                    <g id="加密服务" transform="translate(0.000000, 372.000000)">
                        <g id="加密" filter="url(#filter-1)" transform="translate(17.000000, 0.000000)">
                            <path d="M38.5402531,46.0193281 C34.6382163,48.5381371 29.9898263,50 25,50 C11.1928813,50 0,38.8071187 0,25 C0,11.1928813 11.1928813,0 25,0 C38.8071187,0 50,11.1928813 50,25 C50,26.3039469 49.9001713,27.5845776 49.7077396,28.8346662 L56.3857985,46.0193286 L38.5402531,46.0193281 Z" id="Oval-7" stroke="#BEBEBE" fill="#FFFFFF"></path>
                            <g id="Group-8" transform="translate(12.000000, 10.000000)">
                                <rect id="Rectangle-52-Copy" fill="#31588E" x="5" y="0" width="18" height="22.5" rx="9"></rect>
                                <rect id="Rectangle-52" fill="#FFFFFF" x="8" y="3" width="12" height="15" rx="6"></rect>
                                <rect id="Rectangle-51" fill="#30588E" x="0" y="10" width="28" height="18" rx="3"></rect>
                                <path d="M15.188809,20.7552361 L16,24 L12,24 L12.811191,20.7552361 C11.7456746,20.2948743 11,19.234518 11,18 C11,16.3431458 12.3431458,15 14,15 C15.6568542,15 17,16.3431458 17,18 C17,19.234518 16.2543254,20.2948743 15.188809,20.7552361 Z" id="Triangle-14" fill="#FFFFFF"></path>
                            </g>
                        </g>
                    </g>
                </g>
            </g>
        </g>
    </g>
</svg>