<?xml version="1.0" encoding="UTF-8" standalone="no"?>
<svg width="66px" height="60px" viewBox="0 0 66 60" version="1.1" xmlns="http://www.w3.org/2000/svg" xmlns:xlink="http://www.w3.org/1999/xlink">
    <!-- Generator: Sketch 3.8.1 (29687) - http://www.bohemiancoding.com/sketch -->
    <title>结款</title>
    <desc>Created with Sketch.</desc>
    <defs>
        <filter x="-50%" y="-50%" width="200%" height="200%" filterUnits="objectBoundingBox" id="filter-1">
            <feMorphology radius="0.5" operator="dilate" in="SourceAlpha" result="shadowSpreadOuter1"></feMorphology>
            <feOffset dx="2" dy="2" in="shadowSpreadOuter1" result="shadowOffsetOuter1"></feOffset>
            <feGaussianBlur stdDeviation="2" in="shadowOffsetOuter1" result="shadowBlurOuter1"></feGaussianBlur>
            <feComposite in="shadowBlurOuter1" in2="SourceAlpha" operator="out" result="shadowBlurOuter1"></feComposite>
            <feColorMatrix values="0 0 0 0 0   0 0 0 0 0   0 0 0 0 0  0 0 0 0.25 0" type="matrix" in="shadowBlurOuter1" result="shadowMatrixOuter1"></feColorMatrix>
            <feMerge>
                <feMergeNode in="shadowMatrixOuter1"></feMergeNode>
                <feMergeNode in="SourceGraphic"></feMergeNode>
            </feMerge>
        </filter>
        <path d="M15.4920153,30 C23.504554,30 30,23.504554 30,15.4920153 C30,7.47947654 23.504554,0.984030528 15.4920153,0.984030528 C7.47947654,0.984030528 0.984030528,7.47947654 0.984030528,15.4920153 C0.984030528,23.504554 7.47947654,30 15.4920153,30 Z" id="path-2"></path>
        <mask id="mask-3" maskContentUnits="userSpaceOnUse" maskUnits="objectBoundingBox" x="-2" y="-2" width="33.0159695" height="33.0159695">
            <rect x="-1.01596947" y="-1.01596947" width="33.0159695" height="33.0159695" fill="white"></rect>
            <use xlink:href="#path-2" fill="black"></use>
        </mask>
        <rect id="path-4" x="0" y="28" width="32" height="3"></rect>
        <mask id="mask-5" maskContentUnits="userSpaceOnUse" maskUnits="objectBoundingBox" x="0" y="0" width="32" height="3" fill="white">
            <use xlink:href="#path-4"></use>
        </mask>
        <rect id="path-6" x="0" y="26" width="32" height="3"></rect>
        <mask id="mask-7" maskContentUnits="userSpaceOnUse" maskUnits="objectBoundingBox" x="0" y="0" width="32" height="3" fill="white">
            <use xlink:href="#path-6"></use>
        </mask>
        <rect id="path-8" x="0" y="24" width="32" height="3"></rect>
        <mask id="mask-9" maskContentUnits="userSpaceOnUse" maskUnits="objectBoundingBox" x="0" y="0" width="32" height="3" fill="white">
            <use xlink:href="#path-8"></use>
        </mask>
    </defs>
    <g id="米画师---首页---Ver-2" stroke="none" stroke-width="1" fill="none" fill-rule="evenodd">
        <g id="第一屏" transform="translate(-969.000000, -2888.000000)">
            <g id="保证稿件质量与安全" transform="translate(165.000000, 2333.000000)">
                <g id="优势x4" transform="translate(790.000000, 0.000000)">
                    <g id="满意结款" transform="translate(0.000000, 558.000000)">
                        <g id="结款" filter="url(#filter-1)" transform="translate(17.000000, 0.000000)">
                            <path d="M38.5402531,46.0193281 C34.6382163,48.5381371 29.9898263,50 25,50 C11.1928813,50 0,38.8071187 0,25 C0,11.1928813 11.1928813,0 25,0 C38.8071187,0 50,11.1928813 50,25 C50,26.3039469 49.9001713,27.5845776 49.7077396,28.8346662 L56.3857985,46.0193286 L38.5402531,46.0193281 Z" id="Oval-7" stroke="#BEBEBE" fill="#FFFFFF"></path>
                            <g transform="translate(10.000000, 8.000000)">
                                <g id="Group-11" transform="translate(3.000000, 0.000000)">
                                    <g id="Oval-12">
                                        <use fill="#3C803F" fill-rule="evenodd" xlink:href="#path-2"></use>
                                        <use stroke="#FFFFFF" mask="url(#mask-3)" stroke-width="4" stroke-linecap="square" xlink:href="#path-2"></use>
                                    </g>
                                    <path d="M15.4920153,27.9274308 C22.3599056,27.9274308 27.9274308,22.3599056 27.9274308,15.4920153 C27.9274308,8.62412493 22.3599056,3.05659978 15.4920153,3.05659978 C8.62412493,3.05659978 3.05659978,8.62412493 3.05659978,15.4920153 C3.05659978,22.3599056 8.62412493,27.9274308 15.4920153,27.9274308 Z" id="Oval-12-Copy" stroke="#FFFFFF" stroke-linecap="square" fill="#3C803F"></path>
                                </g>
                                <g id="Group-10" transform="translate(14.000000, 11.000000)" stroke-linecap="square" stroke-width="2" stroke="#FFFFFF">
                                    <polyline id="Line" points="1 0 4.3726562 2.75 8 0"></polyline>
                                    <path d="M0,3.66666667 L9,3.66666667" id="Line"></path>
                                    <path d="M4.5,4.125 L4.5,10.5416667" id="Line"></path>
                                    <path d="M1.5,7.33333333 L7.5,7.33333333" id="Line-Copy-7"></path>
                                </g>
                                <use id="Rectangle-59" stroke="#3C803F" mask="url(#mask-5)" stroke-width="2" fill="#FFFFFF" xlink:href="#path-4"></use>
                                <use id="Rectangle-59-Copy" stroke="#3C803F" mask="url(#mask-7)" stroke-width="2" fill="#FFFFFF" xlink:href="#path-6"></use>
                                <use id="Rectangle-59-Copy-3" stroke="#3C803F" mask="url(#mask-9)" stroke-width="2" fill="#FFFFFF" xlink:href="#path-8"></use>
                            </g>
                        </g>
                    </g>
                </g>
            </g>
        </g>
    </g>
</svg>